DataType=double
version=3
OpenSimVersion=4.5
endheader
time	ground_force_1_vx	ground_force_1_vy	ground_force_1_vz	ground_force_1_px	ground_force_1_py	ground_force_1_pz	ground_moment_1_mx	ground_moment_1_my	ground_moment_1_mz	ground_force_2_vx	ground_force_2_vy	ground_force_2_vz	ground_force_2_px	ground_force_2_py	ground_force_2_pz	ground_moment_2_mx	ground_moment_2_my	ground_moment_2_mz
2	-39.55190127	622.137595	48.02234916	0.8076506260422924	0	0.254876446341871	-91.96237315	-3.686259295	14.42744683	0	0	0	0.8089	0	0.745900015	0	0	0
2.005	-37.48554071	618.4534768	47.01147431	0.8076506260422924	0	0.254876446341871	-91.60966284	-3.246717407	11.72190757	0	0	0	0.8089	0	0.745900015	0	0	0
2.01	-35.2087058	615.7489495	45.8818354	0.8076506260422924	0	0.254876446341871	-91.43560497999999	-2.798141544	8.855629397	0	0	0	0.8089	0	0.745900015	0	0	0
2.015	-32.7022285	613.903989	44.6789399	0.8076506260422924	0	0.254876446341871	-91.41926382	-2.334737478	5.842881644	0	0	0	0.8089	0	0.745900015	0	0	0
2.02	-30.25170357	612.8415982	43.51960041	0.8076506260422924	0	0.254876446341871	-91.5320509	-1.885875212	2.775874962	0	0	0	0.8089	0	0.745900015	0	0	0
2.025	-27.92237168	612.4367136	42.46482222	0.8076506260422924	0	0.254876446341871	-91.75164830999999	-1.443838281	-0.268929372	0	0	0	0.8089	0	0.745900015	0	0	0
2.03	-25.50765003	612.545038	41.43000396	0.8076506260422924	0	0.254876446341871	-92.0529037	-0.9958452249999999	-3.333661592	0	0	0	0.8089	0	0.745900015	0	0	0
2.035	-22.9596267	613.0162617	40.35312803	0.8076506260422924	0	0.254876446341871	-92.42535644	-0.554162965	-6.539998165	0	0	0	0.8089	0	0.745900015	0	0	0
2.04	-20.43330123	613.7997121	39.27328347	0.8076506260422924	0	0.254876446341871	-92.84712533	-0.119199868	-9.877018879	0	0	0	0.8089	0	0.745900015	0	0	0
2.045	-17.97357277	614.8681682	38.32940504	0.8076506260422924	0	0.254876446341871	-93.29468721000001	0.31324798	-13.13549348	0	0	0	0.8089	0	0.745900015	0	0	0
2.05	-15.52918087	616.2276035	37.61018558	0.8076506260422924	0	0.254876446341871	-93.75917692	0.740288809	-16.24223903	0	0	0	0.8089	0	0.745900015	0	0	0
2.055	-13.08161361	617.8925733	37.02503551	0.8076506260422924	0	0.254876446341871	-94.24078733	1.190709349	-19.37231936	0	0	0	0.8089	0	0.745900015	0	0	0
2.06	-10.56697777	619.7865578	36.43277627	0.8076506260422924	0	0.254876446341871	-94.74745962	1.681018089	-22.63232446	0	0	0	0.8089	0	0.745900015	0	0	0
2.065	-7.904275548	621.8236596	35.77595995	0.8076506260422924	0	0.254876446341871	-95.26350196999999	2.189626302	-25.91366133	0	0	0	0.8089	0	0.745900015	0	0	0
2.07	-5.181294614	623.9348502	35.18374094	0.8076506260422924	0	0.254876446341871	-95.77302777	2.724922097	-29.14773152	0	0	0	0.8089	0	0.745900015	0	0	0
2.075	-2.508027028	626.0585328	34.77130786	0.8076506260422924	0	0.254876446341871	-96.27099899	3.271295136	-32.40602579	0	0	0	0.8089	0	0.745900015	0	0	0
2.08	0.234237902	628.0732313	34.47688049	0.8076506260422924	0	0.254876446341871	-96.76337739	3.815483658	-35.73527614	0	0	0	0.8089	0	0.745900015	0	0	0
2.085	3.182274073	629.8938193	34.1611294	0.8076506260422924	0	0.254876446341871	-97.25495023000001	4.370183779	-39.10965723	0	0	0	0.8089	0	0.745900015	0	0	0
2.09	6.223954983	631.5748624	33.80992321	0.8076506260422924	0	0.254876446341871	-97.7398721	4.91842418	-42.51739982	0	0	0	0.8089	0	0.745900015	0	0	0
2.095	9.238464584999999	633.1739439	33.56931778	0.8076506260422924	0	0.254876446341871	-98.21691606	5.455651788	-45.91975017	0	0	0	0.8089	0	0.745900015	0	0	0
2.1	12.31535241	634.72104	33.51762885	0.8076506260422924	0	0.254876446341871	-98.68838475	5.986935212	-49.28052709	0	0	0	0.8089	0	0.745900015	0	0	0
2.105	15.53926577	636.2398194	33.58773218	0.8076506260422924	0	0.254876446341871	-99.17172803	6.517141625	-52.67454368	0	0	0	0.8089	0	0.745900015	0	0	0
2.11	18.85389797	637.8578291	33.63206221	0.8076506260422924	0	0.254876446341871	-99.68028364	7.069787874	-56.21082805	0	0	0	0.8089	0	0.745900015	0	0	0
2.115	22.22868984	639.7141076	33.60356005	0.8076506260422924	0	0.254876446341871	-100.2224354	7.658855143	-59.87626637	0	0	0	0.8089	0	0.745900015	0	0	0
2.12	25.69053951	641.8598776	33.60905581	0.8076506260422924	0	0.254876446341871	-100.8088253	8.265773188000001	-63.60128428	0	0	0	0.8089	0	0.745900015	0	0	0
2.125	29.19723306	644.2999174	33.74438455	0.8076506260422924	0	0.254876446341871	-101.443352	8.896446836000001	-67.42051024	0	0	0	0.8089	0	0.745900015	0	0	0
2.13	32.71320688	647.0239994	34.00654774	0.8076506260422924	0	0.254876446341871	-102.1386078	9.550572198999999	-71.40629147999999	0	0	0	0.8089	0	0.745900015	0	0	0
2.135	36.29397284	650.1072053	34.28886465	0.8076506260422924	0	0.254876446341871	-102.8950403	10.20733634	-75.55440032	0	0	0	0.8089	0	0.745900015	0	0	0
2.14	39.94148492	653.5216684	34.55691585	0.8076506260422924	0	0.254876446341871	-103.7055212	10.89148952	-79.80352136	0	0	0	0.8089	0	0.745900015	0	0	0
2.145	43.55567601	657.1526717	34.89562396	0.8076506260422924	0	0.254876446341871	-104.56023	11.59684792	-84.10136228	0	0	0	0.8089	0	0.745900015	0	0	0
2.15	47.09636456	660.9442311	35.36766676	0.8076506260422924	0	0.254876446341871	-105.4430719	12.30589522	-88.42080756999999	0	0	0	0.8089	0	0.745900015	0	0	0
2.155	50.65395162	664.8386017	35.92060858	0.8076506260422924	0	0.254876446341871	-106.3447619	13.03440722	-92.76326872999999	0	0	0	0.8089	0	0.745900015	0	0	0
2.16	54.31128687	668.7072418	36.39619508	0.8076506260422924	0	0.254876446341871	-107.2510195	13.77436117	-97.12938604999999	0	0	0	0.8089	0	0.745900015	0	0	0
2.165	58.03397146	672.3906095	36.71325514	0.8076506260422924	0	0.254876446341871	-108.1470254	14.54000088	-101.4738526	0	0	0	0.8089	0	0.745900015	0	0	0
2.17	61.75977446	675.8696723	36.90212132	0.8076506260422924	0	0.254876446341871	-109.0097325	15.32676167	-105.7444351	0	0	0	0.8089	0	0.745900015	0	0	0
2.175	65.51413759	679.1236709	37.04394448	0.8076506260422924	0	0.254876446341871	-109.8286569	16.10656638	-109.9511456	0	0	0	0.8089	0	0.745900015	0	0	0
2.18	69.38146841	682.0065876	37.11814824	0.8076506260422924	0	0.254876446341871	-110.5919247	16.87866348	-114.1312038	0	0	0	0.8089	0	0.745900015	0	0	0
2.185	73.37830167	684.3638979999999	37.05050002	0.8076506260422924	0	0.254876446341871	-111.2829313	17.64007882	-118.2725032	0	0	0	0.8089	0	0.745900015	0	0	0
2.19	77.43541075	686.1827868	36.85263383	0.8076506260422924	0	0.254876446341871	-111.8849725	18.38780194	-122.2480194	0	0	0	0.8089	0	0.745900015	0	0	0
2.195	81.46818254999999	687.4842738999999	36.59532644	0.8076506260422924	0	0.254876446341871	-112.3694203	19.13681126	-125.9694633	0	0	0	0.8089	0	0.745900015	0	0	0
2.2	85.47310458	688.0858526	36.39116854	0.8076506260422924	0	0.254876446341871	-112.7306896	19.89443639	-129.5249494	0	0	0	0.8089	0	0.745900015	0	0	0
2.205	89.57422013999999	687.8287711	36.22007768	0.8076506260422924	0	0.254876446341871	-112.9566488	20.66801825	-133.0051976	0	0	0	0.8089	0	0.745900015	0	0	0
2.21	93.8246412	686.7100109	36.01038412	0.8076506260422924	0	0.254876446341871	-113.0329163	21.48764195	-136.3634964	0	0	0	0.8089	0	0.745900015	0	0	0
2.215	98.05451632	684.7542357	35.7531687	0.8076506260422924	0	0.254876446341871	-112.9481308	22.33790046	-139.5216682	0	0	0	0.8089	0	0.745900015	0	0	0
2.22	102.1250648	681.8583640000001	35.49574011	0.8076506260422924	0	0.254876446341871	-112.6906379	23.205248	-142.4967681	0	0	0	0.8089	0	0.745900015	0	0	0
2.225	106.1782463	677.8210522000001	35.29212935	0.8076506260422924	0	0.254876446341871	-112.2550695	24.08195245	-145.3419993	0	0	0	0.8089	0	0.745900015	0	0	0
2.23	110.3619248	672.5697668	35.10190973	0.8076506260422924	0	0.254876446341871	-111.6238063	24.94099997	-148.0387889	0	0	0	0.8089	0	0.745900015	0	0	0
2.235	114.5319717	666.070343	34.83059831	0.8076506260422924	0	0.254876446341871	-110.7718596	25.78890181	-150.434173	0	0	0	0.8089	0	0.745900015	0	0	0
2.24	118.4606398	658.1861897	34.39939592	0.8076506260422924	0	0.254876446341871	-109.6619604	26.60612511	-152.3112505	-2.055626261	21.03447231	-4.329477086	0.8089	0	0.745900015	4.336094425	0.893109673	3.943170682
2.245	122.1237311	648.6074137000001	33.81137664	0.8076506260422924	0	0.254876446341871	-108.249654	27.35977538	-153.5837	1.541225055	43.66100043	-3.303567631	0.8089	0	0.745900015	8.940119430999999	0.004547854	7.59069705
2.25	125.6160077	636.9687259	33.1007919	0.8076506260422924	0	0.254876446341871	-106.4887172	28.02999925	-154.2670278	6.596736201	76.10503308	-0.447467287	0.8089	0	0.745900015	15.47841861	-1.338896387	12.74952375
2.255	128.8443854	622.9889314	32.19152198	0.8076506260422924	0	0.254876446341871	-104.3151973	28.56705998	-154.27577	11.66075829	119.1117381	4.867425449	0.8089	0	0.745900015	24.03009489	-2.985505633	19.55719966
2.26	131.4761773	606.353466	30.97672548	0.8076506260422924	0	0.254876446341871	-101.6645385	28.93036552	-153.3576435	14.63694737	171.5541727	12.75187316	0.8089	0	0.745900015	34.35854741	-4.465318402	27.82328197
2.265	133.1855055	586.7307862	29.41020463	0.8076506260422924	0	0.254876446341871	-98.46935928000001	29.05699115	-151.2758631	13.46411478	230.3112871	22.26049761	0.8089	0	0.745900015	45.88890928	-5.331160412	36.95598023
2.27	133.7872563	563.7453528999999	27.56454342	0.8076506260422924	0	0.254876446341871	-94.68198261000001	28.87904427	-147.9945767	6.99532311	290.9902684	31.6412861	0.8089	0	0.745900015	57.75199399	-5.273518912	46.2683887
